<mxfile host="app.diagrams.net" modified="2022-07-14T01:28:41.696Z" agent="5.0 (Windows NT 10.0; Win64; x64) AppleWebKit/537.36 (KHTML, like Gecko) Chrome/96.0.4664.93 Safari/537.36" etag="bWlie1wkroykf8rbzHqQ" version="20.0.4" type="github">
  <diagram id="ZumDk1zzaGUDvQfbP8pL" name="第 1 页">
    <mxGraphModel dx="2249" dy="762" grid="1" gridSize="10" guides="1" tooltips="1" connect="1" arrows="1" fold="1" page="1" pageScale="1" pageWidth="827" pageHeight="1169" math="0" shadow="0">
      <root>
        <mxCell id="0" />
        <mxCell id="1" parent="0" />
        <mxCell id="Q3I8BFPntzRDpu0RT3q6-12" value="" style="edgeStyle=orthogonalEdgeStyle;rounded=0;orthogonalLoop=1;jettySize=auto;html=1;" parent="1" source="Q3I8BFPntzRDpu0RT3q6-1" target="Q3I8BFPntzRDpu0RT3q6-2" edge="1">
          <mxGeometry relative="1" as="geometry" />
        </mxCell>
        <mxCell id="Q3I8BFPntzRDpu0RT3q6-1" value="软件分发" style="strokeWidth=2;html=1;shape=mxgraph.flowchart.start_1;whiteSpace=wrap;fillColor=#008a00;fontColor=#ffffff;strokeColor=#005700;" parent="1" vertex="1">
          <mxGeometry x="-338" y="40" width="100" height="60" as="geometry" />
        </mxCell>
        <mxCell id="Q3I8BFPntzRDpu0RT3q6-13" value="" style="edgeStyle=orthogonalEdgeStyle;rounded=0;orthogonalLoop=1;jettySize=auto;html=1;" parent="1" source="Q3I8BFPntzRDpu0RT3q6-2" target="Q3I8BFPntzRDpu0RT3q6-3" edge="1">
          <mxGeometry relative="1" as="geometry" />
        </mxCell>
        <mxCell id="Q3I8BFPntzRDpu0RT3q6-14" value="" style="edgeStyle=orthogonalEdgeStyle;rounded=0;orthogonalLoop=1;jettySize=auto;html=1;" parent="1" source="Q3I8BFPntzRDpu0RT3q6-2" target="Q3I8BFPntzRDpu0RT3q6-7" edge="1">
          <mxGeometry relative="1" as="geometry" />
        </mxCell>
        <mxCell id="Q3I8BFPntzRDpu0RT3q6-2" value="是否&lt;br&gt;分发成功" style="strokeWidth=2;html=1;shape=mxgraph.flowchart.decision;whiteSpace=wrap;fillColor=#dae8fc;strokeColor=#6c8ebf;" parent="1" vertex="1">
          <mxGeometry x="-338" y="160" width="100" height="100" as="geometry" />
        </mxCell>
        <mxCell id="Q3I8BFPntzRDpu0RT3q6-16" value="" style="edgeStyle=orthogonalEdgeStyle;rounded=0;orthogonalLoop=1;jettySize=auto;html=1;" parent="1" source="Q3I8BFPntzRDpu0RT3q6-3" target="Q3I8BFPntzRDpu0RT3q6-4" edge="1">
          <mxGeometry relative="1" as="geometry" />
        </mxCell>
        <mxCell id="Q3I8BFPntzRDpu0RT3q6-3" value="大量主机升级&lt;br&gt;要分批下发" style="rounded=1;whiteSpace=wrap;html=1;absoluteArcSize=1;arcSize=14;strokeWidth=2;fillColor=#0050ef;fontColor=#ffffff;strokeColor=#001DBC;" parent="1" vertex="1">
          <mxGeometry x="-338" y="310" width="100" height="100" as="geometry" />
        </mxCell>
        <mxCell id="Q3I8BFPntzRDpu0RT3q6-17" value="" style="edgeStyle=orthogonalEdgeStyle;rounded=0;orthogonalLoop=1;jettySize=auto;html=1;" parent="1" source="Q3I8BFPntzRDpu0RT3q6-4" target="Q3I8BFPntzRDpu0RT3q6-5" edge="1">
          <mxGeometry relative="1" as="geometry" />
        </mxCell>
        <mxCell id="Q3I8BFPntzRDpu0RT3q6-19" value="" style="edgeStyle=orthogonalEdgeStyle;rounded=0;orthogonalLoop=1;jettySize=auto;html=1;exitX=1;exitY=0.62;exitDx=0;exitDy=0;exitPerimeter=0;" parent="1" source="Q3I8BFPntzRDpu0RT3q6-5" target="Q3I8BFPntzRDpu0RT3q6-9" edge="1">
          <mxGeometry relative="1" as="geometry" />
        </mxCell>
        <mxCell id="Q3I8BFPntzRDpu0RT3q6-4" value="客户端获取&lt;br&gt;软件列表" style="rounded=1;whiteSpace=wrap;html=1;absoluteArcSize=1;arcSize=14;strokeWidth=2;fillColor=#dae8fc;strokeColor=#6c8ebf;" parent="1" vertex="1">
          <mxGeometry x="-338" y="470" width="100" height="100" as="geometry" />
        </mxCell>
        <mxCell id="Q3I8BFPntzRDpu0RT3q6-18" value="" style="edgeStyle=orthogonalEdgeStyle;rounded=0;orthogonalLoop=1;jettySize=auto;html=1;" parent="1" source="Q3I8BFPntzRDpu0RT3q6-5" target="Q3I8BFPntzRDpu0RT3q6-6" edge="1">
          <mxGeometry relative="1" as="geometry" />
        </mxCell>
        <mxCell id="Q3I8BFPntzRDpu0RT3q6-5" value="下载安装&lt;br&gt;安装包" style="rounded=1;whiteSpace=wrap;html=1;absoluteArcSize=1;arcSize=14;strokeWidth=2;fillColor=#dae8fc;strokeColor=#6c8ebf;" parent="1" vertex="1">
          <mxGeometry x="-338" y="620" width="100" height="100" as="geometry" />
        </mxCell>
        <mxCell id="Q3I8BFPntzRDpu0RT3q6-6" value="升级结束" style="strokeWidth=2;html=1;shape=mxgraph.flowchart.terminator;whiteSpace=wrap;fillColor=#008a00;fontColor=#ffffff;strokeColor=#005700;" parent="1" vertex="1">
          <mxGeometry x="-338" y="760" width="100" height="60" as="geometry" />
        </mxCell>
        <mxCell id="Q3I8BFPntzRDpu0RT3q6-15" value="" style="edgeStyle=orthogonalEdgeStyle;rounded=0;orthogonalLoop=1;jettySize=auto;html=1;" parent="1" source="Q3I8BFPntzRDpu0RT3q6-7" target="Q3I8BFPntzRDpu0RT3q6-8" edge="1">
          <mxGeometry relative="1" as="geometry" />
        </mxCell>
        <mxCell id="Q3I8BFPntzRDpu0RT3q6-7" value="分发失败列表" style="rounded=1;whiteSpace=wrap;html=1;absoluteArcSize=1;arcSize=14;strokeWidth=2;fillColor=#e51400;fontColor=#ffffff;strokeColor=#B20000;" parent="1" vertex="1">
          <mxGeometry x="-68" y="160" width="100" height="100" as="geometry" />
        </mxCell>
        <mxCell id="Q3I8BFPntzRDpu0RT3q6-21" style="edgeStyle=orthogonalEdgeStyle;rounded=0;orthogonalLoop=1;jettySize=auto;html=1;exitX=0.5;exitY=1;exitDx=0;exitDy=0;entryX=1;entryY=0.5;entryDx=0;entryDy=0;" parent="1" source="Q3I8BFPntzRDpu0RT3q6-8" target="Q3I8BFPntzRDpu0RT3q6-3" edge="1">
          <mxGeometry relative="1" as="geometry" />
        </mxCell>
        <mxCell id="Q3I8BFPntzRDpu0RT3q6-8" value="定时扫描&lt;br&gt;激活、在线&lt;br&gt;主机" style="rounded=1;whiteSpace=wrap;html=1;absoluteArcSize=1;arcSize=14;strokeWidth=2;fillColor=#008a00;fontColor=#ffffff;strokeColor=#005700;" parent="1" vertex="1">
          <mxGeometry x="112" y="160" width="100" height="100" as="geometry" />
        </mxCell>
        <mxCell id="Q3I8BFPntzRDpu0RT3q6-20" value="" style="edgeStyle=orthogonalEdgeStyle;rounded=0;orthogonalLoop=1;jettySize=auto;html=1;" parent="1" source="Q3I8BFPntzRDpu0RT3q6-9" target="Q3I8BFPntzRDpu0RT3q6-11" edge="1">
          <mxGeometry relative="1" as="geometry" />
        </mxCell>
        <mxCell id="Q3I8BFPntzRDpu0RT3q6-9" value="软件状态列表" style="rounded=1;whiteSpace=wrap;html=1;absoluteArcSize=1;arcSize=14;strokeWidth=2;fillColor=#dae8fc;strokeColor=#6c8ebf;" parent="1" vertex="1">
          <mxGeometry x="-48" y="470" width="100" height="100" as="geometry" />
        </mxCell>
        <mxCell id="Q3I8BFPntzRDpu0RT3q6-22" style="edgeStyle=orthogonalEdgeStyle;rounded=0;orthogonalLoop=1;jettySize=auto;html=1;exitX=0.5;exitY=0;exitDx=0;exitDy=0;exitPerimeter=0;entryX=1;entryY=0.5;entryDx=0;entryDy=0;" parent="1" source="Q3I8BFPntzRDpu0RT3q6-11" target="Q3I8BFPntzRDpu0RT3q6-3" edge="1">
          <mxGeometry relative="1" as="geometry" />
        </mxCell>
        <mxCell id="Q3I8BFPntzRDpu0RT3q6-23" style="edgeStyle=orthogonalEdgeStyle;rounded=0;orthogonalLoop=1;jettySize=auto;html=1;exitX=0.5;exitY=1;exitDx=0;exitDy=0;exitPerimeter=0;entryX=1;entryY=0.5;entryDx=0;entryDy=0;entryPerimeter=0;" parent="1" source="Q3I8BFPntzRDpu0RT3q6-11" target="Q3I8BFPntzRDpu0RT3q6-6" edge="1">
          <mxGeometry relative="1" as="geometry" />
        </mxCell>
        <mxCell id="Q3I8BFPntzRDpu0RT3q6-11" value="定时扫描&lt;br&gt;升级失败的&lt;br&gt;再次分发" style="strokeWidth=2;html=1;shape=mxgraph.flowchart.decision;whiteSpace=wrap;fillColor=#e51400;fontColor=#ffffff;strokeColor=#B20000;" parent="1" vertex="1">
          <mxGeometry x="112" y="470" width="100" height="100" as="geometry" />
        </mxCell>
        <mxCell id="Q3I8BFPntzRDpu0RT3q6-26" value="&lt;b&gt;检测到在线激活后，标记分发状态，并清空表&lt;/b&gt;" style="text;html=1;align=left;verticalAlign=middle;resizable=0;points=[];autosize=1;strokeColor=none;fillColor=none;" parent="1" vertex="1">
          <mxGeometry x="252" y="170" width="260" height="20" as="geometry" />
        </mxCell>
        <mxCell id="Q3I8BFPntzRDpu0RT3q6-27" value="&lt;b&gt;是&lt;/b&gt;" style="text;html=1;align=center;verticalAlign=middle;resizable=0;points=[];autosize=1;strokeColor=none;fillColor=none;" parent="1" vertex="1">
          <mxGeometry x="-293" y="270" width="30" height="20" as="geometry" />
        </mxCell>
        <mxCell id="Q3I8BFPntzRDpu0RT3q6-28" value="&lt;b&gt;否&lt;/b&gt;" style="text;html=1;align=center;verticalAlign=middle;resizable=0;points=[];autosize=1;strokeColor=none;fillColor=none;" parent="1" vertex="1">
          <mxGeometry x="-173" y="210" width="30" height="20" as="geometry" />
        </mxCell>
        <mxCell id="Q3I8BFPntzRDpu0RT3q6-29" value="&lt;b&gt;未激活，不在线的主机&lt;/b&gt;" style="text;html=1;align=center;verticalAlign=middle;resizable=0;points=[];autosize=1;strokeColor=none;fillColor=none;" parent="1" vertex="1">
          <mxGeometry x="-238" y="180" width="140" height="20" as="geometry" />
        </mxCell>
        <mxCell id="Q3I8BFPntzRDpu0RT3q6-30" value="&lt;ol&gt;&lt;li&gt;&lt;b&gt;分发失败重试机制&lt;/b&gt;&lt;/li&gt;&lt;li&gt;&lt;b&gt;升级失败重试机制&lt;/b&gt;&lt;/li&gt;&lt;li&gt;&lt;b&gt;批量下发分批机制&lt;/b&gt;&lt;/li&gt;&lt;/ol&gt;" style="text;html=1;align=left;verticalAlign=middle;resizable=0;points=[];autosize=1;strokeColor=none;fillColor=none;" parent="1" vertex="1">
          <mxGeometry x="45" y="25" width="150" height="70" as="geometry" />
        </mxCell>
        <mxCell id="Q3I8BFPntzRDpu0RT3q6-31" value="分发" style="text;html=1;align=center;verticalAlign=middle;resizable=0;points=[];autosize=1;strokeColor=none;fillColor=none;" parent="1" vertex="1">
          <mxGeometry x="-58" y="330" width="40" height="20" as="geometry" />
        </mxCell>
        <mxCell id="Q3I8BFPntzRDpu0RT3q6-32" value="更新软件状态" style="text;html=1;align=center;verticalAlign=middle;resizable=0;points=[];autosize=1;strokeColor=none;fillColor=none;" parent="1" vertex="1">
          <mxGeometry x="-113" y="650" width="90" height="20" as="geometry" />
        </mxCell>
        <mxCell id="Q3I8BFPntzRDpu0RT3q6-33" value="超过限制&lt;br&gt;重试次数" style="text;html=1;align=center;verticalAlign=middle;resizable=0;points=[];autosize=1;strokeColor=none;fillColor=none;" parent="1" vertex="1">
          <mxGeometry x="169" y="685" width="60" height="30" as="geometry" />
        </mxCell>
        <mxCell id="Q3I8BFPntzRDpu0RT3q6-34" value="&lt;ul&gt;&lt;li&gt;&lt;b&gt;分发一批，剩余的存入待分发列表&lt;/b&gt;&lt;/li&gt;&lt;li&gt;&lt;b&gt;定时扫描待分发列表，批量分发&lt;/b&gt;&lt;/li&gt;&lt;li&gt;&lt;b&gt;注意再次分发时，存在就不分发&lt;/b&gt;&lt;/li&gt;&lt;li&gt;&lt;b&gt;定时扫描主机在线状态，离线的放入&lt;/b&gt;&lt;/li&gt;&lt;li&gt;&lt;b&gt;到分发失败列表&lt;/b&gt;&lt;/li&gt;&lt;/ul&gt;" style="text;html=1;align=left;verticalAlign=middle;resizable=0;points=[];autosize=1;strokeColor=none;fillColor=none;" parent="1" vertex="1">
          <mxGeometry x="-638" y="280" width="250" height="100" as="geometry" />
        </mxCell>
      </root>
    </mxGraphModel>
  </diagram>
</mxfile>
